<svg xmlns="http://www.w3.org/2000/svg" xmlns:svg="http://www.w3.org/2000/svg" xmlns:xlink="http://www.w3.org/1999/xlink" id="svg8" width="343.525" height="343.525" version="1.1" viewBox="0 0 99.98 99.98"><defs id="defs2"><linearGradient id="linearGradient1050"><stop id="stop1046" offset="0" style="stop-color:#232323;stop-opacity:1"/><stop id="stop1048" offset="1" style="stop-color:#0c0c0c;stop-opacity:1"/></linearGradient><linearGradient id="linearGradient1044"><stop style="stop-color:#fff300;stop-opacity:1" id="stop1040" offset="0"/><stop style="stop-color:#ff8300;stop-opacity:1" id="stop1042" offset="1"/></linearGradient><linearGradient id="linearGradient1034"><stop id="stop1030" offset="0" style="stop-color:#fff300;stop-opacity:1"/><stop id="stop1032" offset="1" style="stop-color:#ff8300;stop-opacity:1"/></linearGradient><linearGradient id="linearGradient1036" x1="82.433" x2="164.598" y1="22.418" y2="100.01" gradientUnits="userSpaceOnUse" xlink:href="#linearGradient1044"/><linearGradient id="linearGradient1038" x1="86.864" x2="164.598" y1="20.463" y2="100.01" gradientTransform="matrix(1.0516632,0,0,1.0516632,-6.0978279,-2.9551858)" gradientUnits="userSpaceOnUse" xlink:href="#linearGradient1034"/><linearGradient id="linearGradient1052" x1="166.374" x2="78.12" y1="104.093" y2="11.869" gradientTransform="matrix(0.95719312,0,0,0.95719312,5.0977381,2.4316911)" gradientUnits="userSpaceOnUse" xlink:href="#linearGradient1050"/></defs><metadata id="metadata5"/><g id="layer1" transform="translate(-54.615988,-25.813723)"><g id="g881" transform="matrix(0.80798602,0,0,0.80798602,8.3855031,29.905224)"><rect id="rect897" width="99.98" height="99.98" x="69.097" y="6.816" ry="15.243" style="fill:url(#linearGradient1036);fill-opacity:1;stroke-width:1.836;stroke-linecap:round"/><rect style="fill:url(#linearGradient1052);fill-opacity:1;stroke-width:1.66239;stroke-linecap:round" id="rect897-6" width="90.526" height="90.526" x="73.824" y="11.543" ry="13.802"/><path id="path883" d="M 115.28351,76.819059 V 64.222416 l -7.29997,10e-7 c -4.01499,-2e-6 -7.27267,-0.06869 -7.23926,-0.152627 0.0332,-0.08395 4.69109,-8.894482 10.35049,-19.578984 l 10.28979,-19.426353 0.0467,12.658417 0.0467,12.658415 6.91931,3e-6 c 3.80563,-10e-7 6.91933,0.02967 6.91934,0.06594 1.1e-4,0.0918 -19.85799,38.793196 -19.95474,38.889962 -0.0432,0.04316 -0.0786,-5.590008 -0.0786,-12.518161 z" style="fill:url(#linearGradient1038);fill-opacity:1;stroke-width:.182121"/></g></g></svg>