<svg xmlns="http://www.w3.org/2000/svg" xmlns:svg="http://www.w3.org/2000/svg" xmlns:xlink="http://www.w3.org/1999/xlink" id="svg8" width="210mm" height="210mm" version="1.1" viewBox="0 0 210 210"><defs id="defs2"><linearGradient id="linearGradient868"><stop style="stop-color:#241f31;stop-opacity:1" id="stop864" offset="0"/><stop style="stop-color:#161616;stop-opacity:1" id="stop1412" offset=".033"/><stop style="stop-color:#241f31;stop-opacity:1" id="stop1282" offset=".079"/><stop style="stop-color:#241f31;stop-opacity:.96949881" id="stop1216" offset=".923"/><stop style="stop-color:#181818;stop-opacity:1" id="stop1478" offset=".977"/><stop style="stop-color:#241f31;stop-opacity:.95490587" id="stop866" offset="1"/></linearGradient><linearGradient id="linearGradient2450"><stop style="stop-color:#c0bfbc;stop-opacity:1" id="stop2446" offset="0"/><stop style="stop-color:#dedddb;stop-opacity:.99607843" id="stop3612" offset=".034"/><stop style="stop-color:#c0bfbc;stop-opacity:.99607843" id="stop3158" offset=".076"/><stop style="stop-color:#c0bfbc;stop-opacity:.96078431" id="stop3288" offset=".92"/><stop style="stop-color:#dbdbd9;stop-opacity:.96078432" id="stop3418" offset=".963"/><stop style="stop-color:#c0bfbc;stop-opacity:.9601137" id="stop2448" offset="1"/></linearGradient><clipPath id="clipPath1139" clipPathUnits="userSpaceOnUse"><circle style="fill:#813d9c;fill-opacity:1;stroke-width:.241784;stop-color:#000" id="circle1141" cx="73.265" cy="153.002" r="6.016"/></clipPath><linearGradient id="linearGradient2452" x1="224.498" x2="599.025" y1="594.096" y2="594.096" gradientUnits="userSpaceOnUse" xlink:href="#linearGradient2450"/><linearGradient id="linearGradient870" x1="224.498" x2="599.025" y1="594.096" y2="594.096" gradientUnits="userSpaceOnUse" xlink:href="#linearGradient868"/></defs><metadata id="metadata5"/><g id="layer1" style="display:inline"><rect style="fill:#f5c211;stroke-width:.458439;stop-color:#000" id="rect833" width="190.53" height="190.53" x="9.735" y="9.735" ry="19.796"/><g id="g3923" transform="translate(-3.9438904)"><path id="rect1869" d="m 224.49805,549.35742 v 33.76563 21.94336 6.2539 h 0.58203 c 2.91791,15.69725 16.61758,27.51367 33.18554,27.51367 h 306.79883 c 16.56797,0 30.26764,-11.81642 33.18555,-27.51367 h 0.77539 V 549.35742 H 565.06445 258.26562 Z" transform="scale(0.26458333)" style="fill:url(#linearGradient870);fill-opacity:1;stroke:none;stroke-width:15.6691;stop-color:#000"/><g id="g1695-9-0" transform="matrix(6.7484678,0,0,6.7484678,-30.271206,44.234713)"><path id="rect5505-3-2" d="m 233.79297,201.23242 c -1.60757,0 -2.90235,1.29476 -2.90235,2.90235 v 35.60742 c 0,1.60754 1.29478,2.90039 2.90235,2.90039 h 27.71289 c 1.60757,0 2.90234,-1.29285 2.90234,-2.90039 v -31.23633 l -7.34375,-7.27344 z m 10.66992,3.75196 h 6.37109 v 6.37109 h 3.38477 l -6.57031,7.43164 -6.56836,-7.43164 h 3.38281 z m 1.75195,15.35156 h 1.50586 1.50586 l 0.11328,0.11328 c 0.10624,0.10733 0.12189,0.17715 0.26954,1.16992 0.0861,0.58016 0.16643,1.09639 0.17773,1.14648 0.0135,0.0604 0.0728,0.10568 0.17187,0.13868 0.0827,0.027 0.32263,0.12195 0.53125,0.21093 l 0.37891,0.16211 0.91406,-0.68359 c 0.97327,-0.72864 1.02658,-0.75573 1.26368,-0.60937 0.17885,0.11071 1.58347,1.50632 1.85742,1.8457 0.20067,0.24865 0.23242,0.3097 0.23242,0.46289 0,0.19166 0.026,0.15191 -0.91992,1.37305 l -0.39453,0.51171 0.125,0.27539 c 0.0693,0.15127 0.17567,0.41326 0.23828,0.58399 l 0.11523,0.31055 1.0918,0.17187 c 0.60084,0.094 1.1333,0.1832 1.18359,0.19922 0.20257,0.0649 0.21485,0.15817 0.21485,1.69727 0,1.51173 -0.0131,1.6204 -0.19532,1.69531 -0.0403,0.0112 -0.57579,0.11371 -1.18945,0.20312 l -1.11523,0.16993 -0.0762,0.20703 c -0.0414,0.11406 -0.14254,0.35067 -0.22461,0.52734 -0.12312,0.26388 -0.14189,0.33802 -0.10546,0.41406 0.0359,0.0783 0.54312,0.73416 1.1914,1.54688 0.057,0.0671 0.11452,0.19352 0.12695,0.26953 0.0187,0.11851 -0.005,0.17764 -0.16796,0.39453 -0.44007,0.58586 -1.68088,1.78908 -2.02539,1.96484 -0.13785,0.0671 -0.1851,0.0779 -0.31055,0.0332 -0.0816,-0.0221 -0.518,-0.33783 -0.9707,-0.69336 -0.7737,-0.60934 -0.83046,-0.64405 -0.93164,-0.60156 -0.0592,0.0221 -0.30645,0.12538 -0.54883,0.22265 l -0.43946,0.17774 -0.0488,0.39257 c -0.0637,0.53332 -0.23748,1.59861 -0.29102,1.78711 -0.0233,0.0895 -0.091,0.19134 -0.15039,0.23828 -0.10398,0.0783 -0.16057,0.0899 -1.5957,0.0899 h -1.48633 l -0.11328,-0.11328 c -0.10624,-0.11181 -0.12188,-0.17493 -0.26953,-1.16797 -0.0861,-0.58028 -0.16644,-1.09617 -0.17774,-1.14649 -0.0135,-0.0559 -0.0728,-0.11071 -0.17187,-0.13867 -0.0827,-0.0221 -0.32334,-0.12233 -0.53321,-0.21289 l -0.38086,-0.16406 -0.83789,0.63867 c -0.46131,0.35106 -0.88383,0.66039 -0.9375,0.68945 -0.20225,0.11181 -0.34073,0.0334 -0.94336,-0.53125 -0.65473,-0.60934 -0.97963,-0.94041 -1.31054,-1.33789 -0.20527,-0.24594 -0.23438,-0.30218 -0.23438,-0.46093 0,-0.20346 0.0115,-0.21907 0.83789,-1.2793 l 0.47852,-0.61328 -0.15625,-0.33789 c -0.085,-0.18559 -0.18828,-0.44118 -0.22852,-0.56641 -0.0403,-0.12522 -0.084,-0.24105 -0.0996,-0.25781 -0.0157,-0.0221 -0.52467,-0.10138 -1.13086,-0.19531 -0.60621,-0.0895 -1.13822,-0.18573 -1.18359,-0.21485 -0.16076,-0.10062 -0.17188,-0.20176 -0.17187,-1.67383 0,-1.5073 0.0131,-1.61534 0.19531,-1.69336 0.0403,-0.0178 0.57452,-0.10814 1.18554,-0.20117 l 1.11133,-0.16992 0.0996,-0.26758 c 0.0559,-0.14791 0.15955,-0.39488 0.23047,-0.54883 l 0.12891,-0.28125 -0.15039,-0.21679 c -0.0828,-0.11909 -0.38266,-0.51086 -0.66797,-0.8711 -0.28533,-0.36013 -0.53045,-0.69589 -0.54297,-0.74609 -0.0322,-0.12824 0.0275,-0.26137 0.23437,-0.52344 0.2672,-0.33876 1.25839,-1.33882 1.5918,-1.60742 0.36214,-0.29172 0.5102,-0.35905 0.67188,-0.30273 0.0659,0.0221 0.49678,0.33467 0.95898,0.69336 0.787,0.61068 0.84698,0.64991 0.94727,0.60742 0.0592,-0.0246 0.30409,-0.12657 0.54492,-0.22461 l 0.43945,-0.17774 0.0723,-0.55859 c 0.0827,-0.64098 0.21165,-1.40336 0.27148,-1.60937 0.0221,-0.0771 0.0807,-0.18509 0.13086,-0.23829 z m 1.51563,6.04101 c -1.68781,0 -3.01953,1.33174 -3.01953,3.01953 0,1.20874 0.68891,2.2711 1.79687,2.77344 0.52538,0.23815 1.2574,0.31019 1.875,0.18164 1.13044,-0.23366 2.06924,-1.17227 2.30274,-2.30273 0.39656,-1.92003 -1.01332,-3.67188 -2.95508,-3.67188 z" transform="matrix(0.43817068,0,0,0.43817068,-87.883569,-89.46937)" style="fill:#000;fill-opacity:1;stroke:none;stroke-width:.955265;stroke-linecap:round;stroke-linejoin:round;stroke-miterlimit:4;stroke-dasharray:none;stroke-dashoffset:0;stroke-opacity:1"/><path style="display:inline;overflow:visible;visibility:visible;fill:none;stroke:none;stroke-width:.46525;stroke-opacity:1;marker:none;enable-background:accumulate" id="path4243-0-7" d="m 20.367336,7.0801132 c -0.0056,0.024976 -0.0147,0.046549 -0.0147,0.087245 V 8.2287098 A 0.22418324,0.22418324 0 0 1 20.178185,8.4468137 C 19.881157,8.5144663 19.602007,8.636209 19.349456,8.7957714 A 0.22418324,0.22418324 0 0 1 19.073203,8.7668672 L 18.317177,8.0108596 c -0.02498,-0.024976 -0.03871,-0.030868 -0.05815,-0.043591 L 17.692,8.5342738 c 0.01274,0.019116 0.01862,0.033309 0.04359,0.05815 L 18.491626,9.34846 a 0.22418324,0.22418324 0 0 1 0.0289,0.2762558 c -0.15951,0.2525448 -0.281301,0.5316802 -0.348954,0.8287272 a 0.22418324,0.22418324 0 0 1 -0.218106,0.174454 H 16.89209 c -0.04067,0 -0.06221,0.0093 -0.08725,0.01469 v 0.81421 c 0.02498,0.0049 0.04655,0.01469 0.08725,0.01469 h 1.061352 a 0.22418324,0.22418324 0 0 1 0.218104,0.174402 c 0.06765,0.296881 0.189396,0.576173 0.348956,0.828718 a 0.22418324,0.22418324 0 0 1 -0.0289,0.276303 l -0.75601,0.756017 c -0.02498,0.02449 -0.03087,0.0392 -0.04359,0.0583 l 0.567023,0.567012 c 0.01912,-0.0147 0.03331,-0.01959 0.05815,-0.04408 l 0.756041,-0.756013 a 0.22418324,0.22418324 0 0 1 0.276255,-0.0294 c 0.252544,0.159705 0.531679,0.281204 0.828727,0.348811 a 0.22418324,0.22418324 0 0 1 0.174454,0.218005 v 1.061373 c 0,0.0392 0.0093,0.06221 0.01469,0.08719 h 0.814191 c 0.0056,-0.0245 0.01469,-0.04899 0.01469,-0.08719 v -1.061382 a 0.22418324,0.22418324 0 0 1 0.174457,-0.218006 c 0.297027,-0.0676 0.576153,-0.189591 0.828701,-0.348811 a 0.22418324,0.22418324 0 0 1 0.276255,0.0294 l 0.756036,0.756016 c 0.02498,0.02449 0.03871,0.0294 0.05815,0.04408 l 0.566997,-0.567022 c -0.01274,-0.01959 -0.01862,-0.03429 -0.04359,-0.0583 l -0.756047,-0.756064 a 0.22418324,0.22418324 0 0 1 -0.0289,-0.276303 c 0.159511,-0.252299 0.2813,-0.53169 0.348955,-0.828768 a 0.22418324,0.22418324 0 0 1 0.218104,-0.174401 h 1.061352 c 0.04067,0 0.06221,-0.0097 0.08725,-0.01469 v -0.814139 c -0.02498,-0.0056 -0.04655,-0.01469 -0.08725,-0.01469 h -1.06171 A 0.22418324,0.22418324 0 0 1 23.376879,10.453467 C 23.309226,10.156439 23.187484,9.877288 23.027922,9.6247384 a 0.22418324,0.22418324 0 0 1 0.0289,-0.2762542 L 23.812837,8.592448 c 0.02498,-0.024976 0.03087,-0.038709 0.04359,-0.05815 L 23.289421,7.9672783 c -0.01911,0.012738 -0.03333,0.018615 -0.05815,0.043591 L 22.475243,8.766919 A 0.22418324,0.22418324 0 0 1 22.198985,8.795823 C 21.946441,8.6362567 21.667301,8.514518 21.370254,8.446863 A 0.22418324,0.22418324 0 0 1 21.195799,8.2287591 V 7.1674023 c 0,-0.040673 -0.0093,-0.062214 -0.01469,-0.087245 z m 0.407108,2.4571055 c 0.833651,0 1.512066,0.6784173 1.512066,1.5120803 0,0.833617 -0.678415,1.512032 -1.512066,1.512032 -0.833651,0 -1.512065,-0.678415 -1.512065,-1.512032 0,-0.833663 0.678414,-1.5120803 1.512065,-1.5120803 z"/><path id="rect957-6-5" d="m 238.67383,228.47656 v 0.80274 c 2.9e-4,-0.41098 0.0104,-0.58645 0.0176,-0.80274 z m 6.1914,0 c -0.0915,0.29121 -0.15429,0.59549 -0.15429,0.91992 0,1.20874 0.68891,2.2711 1.79687,2.77344 0.52538,0.23815 1.2574,0.31019 1.875,0.18164 1.13044,-0.23366 2.06924,-1.17227 2.30274,-2.30273 0.1141,-0.55246 0.0647,-1.08548 -0.0899,-1.57227 z m 11.9043,0 c 0.009,0.24456 0.0215,0.42392 0.0215,0.93946 0,1.51173 -0.0131,1.6204 -0.19532,1.69531 -0.0403,0.0112 -0.57579,0.11371 -1.18945,0.20312 l -1.11523,0.16993 -0.0762,0.20703 c -0.0414,0.11406 -0.14254,0.35067 -0.22461,0.52734 -0.12312,0.26388 -0.14189,0.33802 -0.10546,0.41406 0.0359,0.0783 0.54312,0.73416 1.1914,1.54688 0.057,0.0671 0.11452,0.19352 0.12695,0.26953 0.0187,0.11851 -0.005,0.17764 -0.16796,0.39453 -0.44007,0.58586 -1.68088,1.78908 -2.02539,1.96484 -0.13785,0.0671 -0.1851,0.0779 -0.31055,0.0332 -0.0816,-0.0221 -0.518,-0.33783 -0.9707,-0.69336 -0.7737,-0.60934 -0.83046,-0.64405 -0.93164,-0.60156 -0.0592,0.0221 -0.30645,0.12538 -0.54883,0.22265 l -0.43946,0.17774 -0.0488,0.39257 c -0.0637,0.53332 -0.23748,1.59861 -0.29102,1.78711 -0.0233,0.0895 -0.091,0.19134 -0.15039,0.23828 -0.10398,0.0783 -0.16057,0.0899 -1.5957,0.0899 h -1.48633 l -0.11328,-0.11328 c -0.10624,-0.11181 -0.12188,-0.17493 -0.26953,-1.16797 -0.0861,-0.58028 -0.16644,-1.09617 -0.17774,-1.14649 -0.0135,-0.0559 -0.0728,-0.11071 -0.17187,-0.13867 -0.0827,-0.0221 -0.32334,-0.12233 -0.53321,-0.21289 l -0.38086,-0.16406 -0.83789,0.63867 c -0.46131,0.35106 -0.88383,0.66039 -0.9375,0.68945 -0.20225,0.11181 -0.34073,0.0334 -0.94336,-0.53125 -0.65473,-0.60934 -0.97963,-0.94041 -1.31054,-1.33789 -0.20527,-0.24594 -0.23438,-0.30218 -0.23438,-0.46093 0,-0.20346 0.0115,-0.21907 0.83789,-1.2793 l 0.47852,-0.61328 -0.15625,-0.33789 c -0.085,-0.18559 -0.18828,-0.44118 -0.22852,-0.56641 -0.0403,-0.12522 -0.084,-0.24105 -0.0996,-0.25781 -0.0157,-0.0221 -0.52467,-0.10138 -1.13086,-0.19531 -0.60621,-0.0895 -1.13822,-0.18573 -1.18359,-0.21485 -0.1546,-0.0968 -0.16897,-0.2537 -0.16992,-1.57031 v 13.17187 h 18.13672 V 228.4766 Z" transform="matrix(0.43817068,0,0,0.43817068,-87.883569,-89.46937)" style="fill:#000;fill-opacity:1;stroke:none;stroke-width:7.4191;stroke-linecap:round;stroke-opacity:1"/><circle style="fill:#000;fill-opacity:1;stroke:none;stroke-width:3.22848;stroke-linecap:round;stroke-opacity:1" id="path959-2-9" cx="20.72" cy="11.103" r="1.632"/><path id="rect5505-6-1-2" d="m 24.754536,-1.2952237 -9.54e-4,1.73923876 9.54e-4,8.7468e-4 v 0.2853167 c 0,0.63843066 0.513793,1.15222496 1.152222,1.15222496 h 0.28532 0.626995 1.15313 L 27.632358,1.5471426 25.09438,-0.95993809 Z" style="fill:#e5a50a;fill-opacity:1;stroke:none;stroke-width:.0810892;stroke-linecap:round;stroke-linejoin:round;stroke-miterlimit:4;stroke-dasharray:none;stroke-dashoffset:0;stroke-opacity:1"/></g></g><circle style="display:inline;fill:#f5c211;fill-opacity:1;stroke:none;stroke-width:5.02243;stop-color:#000" id="path5743-3" cx="148.859" cy="85.35" r="22.224"/><path style="fill:#fff;fill-opacity:1;stroke:none;stroke-width:.165727;stroke-linecap:round;stroke-linejoin:round;stroke-miterlimit:4;stroke-dasharray:none;stroke-dashoffset:0;stroke-opacity:1" id="path7340" d="m 148.84271,64.687424 m -2.7796,3.003024 h 2.91971 2.91971 l 0.21963,0.219634 c 0.20599,0.208107 0.23633,0.343476 0.52262,2.268363 0.16694,1.124869 0.32269,2.125785 0.3446,2.222908 0.0262,0.117108 0.14115,0.2049 0.33324,0.268884 0.16035,0.05233 0.62554,0.236446 1.03004,0.408968 l 0.73466,0.314317 1.77226,-1.32541 c 1.88708,-1.412756 1.99045,-1.465285 2.45015,-1.181503 0.34678,0.214651 3.0702,2.920595 3.60135,3.578619 0.38909,0.482111 0.45065,0.600478 0.45065,0.897499 0,0.371611 0.0503,0.294535 -1.78363,2.662202 l -0.76496,0.992156 0.24236,0.533951 c 0.13436,0.293296 0.34062,0.801268 0.46201,1.1323 l 0.22341,0.602124 2.11689,0.333241 c 1.16497,0.182252 2.19735,0.355201 2.29486,0.386267 0.39277,0.12583 0.41658,0.306673 0.41658,3.290832 0,2.931094 -0.0254,3.14179 -0.37871,3.287035 -0.0781,0.02171 -1.1164,0.220473 -2.30622,0.393827 l -2.16231,0.329478 -0.14776,0.401407 c -0.0802,0.221156 -0.27637,0.679918 -0.43549,1.022462 -0.23872,0.511638 -0.27511,0.655389 -0.20448,0.802816 0.0696,0.151822 1.05306,1.423464 2.31001,2.999248 0.11051,0.130099 0.22204,0.375219 0.24614,0.522589 0.0363,0.229785 -0.01,0.344427 -0.32566,0.764955 -0.85325,1.135925 -3.25905,3.468849 -3.92703,3.809634 -0.26727,0.130096 -0.35888,0.151035 -0.60211,0.06437 -0.15821,-0.04288 -1.00436,-0.655018 -1.8821,-1.344351 -1.50012,-1.181456 -1.61017,-1.248757 -1.80635,-1.166375 -0.11479,0.04288 -0.59418,0.243102 -1.06412,0.431697 l -0.85207,0.344625 -0.0946,0.761151 c -0.12351,1.03406 -0.46045,3.099542 -0.56426,3.465022 -0.0451,0.17353 -0.17644,0.37098 -0.29159,0.462 -0.20161,0.15181 -0.31134,0.1743 -3.09391,0.1743 h -2.88184 l -0.21963,-0.21963 c -0.206,-0.21679 -0.23632,-0.33918 -0.5226,-2.26457 -0.16694,-1.125103 -0.32271,-2.125367 -0.34461,-2.222924 -0.0262,-0.108385 -0.14116,-0.214657 -0.33324,-0.268872 -0.16035,-0.04288 -0.62693,-0.237193 -1.03384,-0.412773 l -0.73845,-0.318094 -1.62459,1.238316 c -0.89444,0.680669 -1.71365,1.280424 -1.81771,1.336779 -0.39214,0.216788 -0.66064,0.0648 -1.82908,-1.030049 -1.26946,-1.181446 -1.89941,-1.823359 -2.54101,-2.594032 -0.398,-0.476853 -0.45445,-0.585895 -0.45445,-0.893695 0,-0.394491 0.0224,-0.424757 1.62459,-2.480438 l 0.92781,-1.189082 -0.30296,-0.655139 c -0.1648,-0.359835 -0.36505,-0.855402 -0.44308,-1.098209 -0.0781,-0.242787 -0.16286,-0.467371 -0.19311,-0.499868 -0.0304,-0.04282 -1.01729,-0.196567 -2.19262,-0.378687 -1.17538,-0.173531 -2.2069,-0.360112 -2.29486,-0.416575 -0.3117,-0.19509 -0.33326,-0.391192 -0.33324,-3.245383 0,-2.922504 0.0254,-3.131982 0.37869,-3.283252 0.0781,-0.03449 1.11393,-0.209674 2.29864,-0.390051 l 2.15476,-0.329458 0.19311,-0.518811 c 0.10839,-0.286778 0.30935,-0.765631 0.44686,-1.064125 l 0.24994,-0.545315 -0.29159,-0.420332 c -0.16054,-0.230905 -0.74194,-0.990503 -1.29512,-1.688978 -0.55323,-0.698256 -1.0285,-1.349256 -1.05277,-1.446589 -0.0625,-0.248642 0.0533,-0.506772 0.45443,-1.014895 0.51806,-0.656824 2.43988,-2.59584 3.08634,-3.116624 0.70214,-0.565615 0.98922,-0.696166 1.3027,-0.586966 0.12777,0.04282 0.96321,0.648889 1.85937,1.344354 1.52591,1.184047 1.6422,1.260108 1.83665,1.177726 0.11478,-0.04767 0.58959,-0.245403 1.05654,-0.435492 l 0.85206,-0.344623 0.14018,-1.08305 c 0.16034,-1.242798 0.41036,-2.720973 0.52637,-3.120401 0.0429,-0.149494 0.15646,-0.358872 0.25372,-0.46202 z m 2.93865,11.712904 c -3.2725,0 -5.85456,2.58211 -5.85456,5.854562 0,2.343623 1.33573,4.403432 3.48395,5.377419 1.01866,0.461746 2.43796,0.601423 3.63543,0.352184 2.1918,-0.453043 4.01205,-2.272912 4.46478,-4.464761 0.7689,-3.722748 -1.96473,-7.119404 -5.7296,-7.119404 z"/><circle style="fill:#fff;fill-opacity:1;stroke:none;stroke-width:3.5562;stop-color:#000" id="path5743" cx="148.859" cy="85.35" r="15.736"/><path style="fill:#241f31;stroke-width:.118107" id="path5253" d="m 148.07954,92.010208 -0.002,-4.02989 -2.30119,-0.05272 c -1.26565,-0.02899 -2.33029,-0.08187 -2.36591,-0.117473 -0.0356,-0.03564 1.27135,-2.583149 2.90433,-5.661208 1.63296,-3.07806 3.10954,-5.862214 3.28123,-6.187002 l 0.31219,-0.590538 0.0736,1.299176 c 0.0405,0.714546 0.0803,2.508299 0.0886,3.986112 l 0.015,2.686937 h 2.1653 c 1.19091,0 2.19747,0.03221 2.23678,0.07149 0.0394,0.03936 -0.42679,1.035845 -1.0358,2.21451 -0.60901,1.178657 -2.0666,4.0032 -3.23908,6.276763 l -2.13179,4.133737 -0.002,-4.029876 z"/></g></svg>